<?xml version="1.0" encoding="utf-8" standalone="no"?>
<!DOCTYPE svg PUBLIC "-//W3C//DTD SVG 1.1//EN"
  "http://www.w3.org/Graphics/SVG/1.1/DTD/svg11.dtd">
<!-- Created with matplotlib (http://matplotlib.org/) -->
<svg height="432pt" version="1.1" viewBox="0 0 720 432" width="720pt" xmlns="http://www.w3.org/2000/svg" xmlns:xlink="http://www.w3.org/1999/xlink">
 <defs>
  <style type="text/css">
*{stroke-linecap:butt;stroke-linejoin:round;}
  </style>
 </defs>
 <g id="figure_1">
  <g id="patch_1">
   <path d="M 0 432 
L 720 432 
L 720 0 
L 0 0 
z
" style="fill:#ffffff;"/>
  </g>
  <g id="axes_1">
   <g id="patch_2">
    <path d="M 90 384.48 
L 648 384.48 
L 648 51.84 
L 90 51.84 
z
" style="fill:#eaeaf2;"/>
   </g>
   <g id="matplotlib.axis_1">
    <g id="xtick_1">
     <g id="line2d_1">
      <path clip-path="url(#p6c8694892b)" d="M 195.421158 384.48 
L 195.421158 51.84 
" style="fill:none;stroke:#ffffff;stroke-linecap:round;stroke-width:0.8;"/>
     </g>
     <g id="text_1">
      <!-- 1:06:40 -->
      <defs>
       <path d="M 37.25 0 
L 28.46875 0 
L 28.46875 56 
Q 25.296875 52.984375 20.140625 49.953125 
Q 14.984375 46.921875 10.890625 45.40625 
L 10.890625 53.90625 
Q 18.265625 57.375 23.78125 62.296875 
Q 29.296875 67.234375 31.59375 71.875 
L 37.25 71.875 
z
" id="ArialMT-31"/>
       <path d="M 9.03125 41.84375 
L 9.03125 51.859375 
L 19.046875 51.859375 
L 19.046875 41.84375 
z
M 9.03125 0 
L 9.03125 10.015625 
L 19.046875 10.015625 
L 19.046875 0 
z
" id="ArialMT-3a"/>
       <path d="M 4.15625 35.296875 
Q 4.15625 48 6.765625 55.734375 
Q 9.375 63.484375 14.515625 67.671875 
Q 19.671875 71.875 27.484375 71.875 
Q 33.25 71.875 37.59375 69.546875 
Q 41.9375 67.234375 44.765625 62.859375 
Q 47.609375 58.5 49.21875 52.21875 
Q 50.828125 45.953125 50.828125 35.296875 
Q 50.828125 22.703125 48.234375 14.96875 
Q 45.65625 7.234375 40.5 3 
Q 35.359375 -1.21875 27.484375 -1.21875 
Q 17.140625 -1.21875 11.234375 6.203125 
Q 4.15625 15.140625 4.15625 35.296875 
z
M 13.1875 35.296875 
Q 13.1875 17.671875 17.3125 11.828125 
Q 21.4375 6 27.484375 6 
Q 33.546875 6 37.671875 11.859375 
Q 41.796875 17.71875 41.796875 35.296875 
Q 41.796875 52.984375 37.671875 58.78125 
Q 33.546875 64.59375 27.390625 64.59375 
Q 21.34375 64.59375 17.71875 59.46875 
Q 13.1875 52.9375 13.1875 35.296875 
z
" id="ArialMT-30"/>
       <path d="M 49.75 54.046875 
L 41.015625 53.375 
Q 39.84375 58.546875 37.703125 60.890625 
Q 34.125 64.65625 28.90625 64.65625 
Q 24.703125 64.65625 21.53125 62.3125 
Q 17.390625 59.28125 14.984375 53.46875 
Q 12.59375 47.65625 12.5 36.921875 
Q 15.671875 41.75 20.265625 44.09375 
Q 24.859375 46.4375 29.890625 46.4375 
Q 38.671875 46.4375 44.84375 39.96875 
Q 51.03125 33.5 51.03125 23.25 
Q 51.03125 16.5 48.125 10.71875 
Q 45.21875 4.9375 40.140625 1.859375 
Q 35.0625 -1.21875 28.609375 -1.21875 
Q 17.625 -1.21875 10.6875 6.859375 
Q 3.765625 14.9375 3.765625 33.5 
Q 3.765625 54.25 11.421875 63.671875 
Q 18.109375 71.875 29.4375 71.875 
Q 37.890625 71.875 43.28125 67.140625 
Q 48.6875 62.40625 49.75 54.046875 
z
M 13.875 23.1875 
Q 13.875 18.65625 15.796875 14.5 
Q 17.71875 10.359375 21.1875 8.171875 
Q 24.65625 6 28.46875 6 
Q 34.03125 6 38.03125 10.484375 
Q 42.046875 14.984375 42.046875 22.703125 
Q 42.046875 30.125 38.078125 34.390625 
Q 34.125 38.671875 28.125 38.671875 
Q 22.171875 38.671875 18.015625 34.390625 
Q 13.875 30.125 13.875 23.1875 
z
" id="ArialMT-36"/>
       <path d="M 32.328125 0 
L 32.328125 17.140625 
L 1.265625 17.140625 
L 1.265625 25.203125 
L 33.9375 71.578125 
L 41.109375 71.578125 
L 41.109375 25.203125 
L 50.78125 25.203125 
L 50.78125 17.140625 
L 41.109375 17.140625 
L 41.109375 0 
z
M 32.328125 25.203125 
L 32.328125 57.46875 
L 9.90625 25.203125 
z
" id="ArialMT-34"/>
      </defs>
      <g style="fill:#262626;" transform="translate(178.740689 398.637812)scale(0.1 -0.1)">
       <use xlink:href="#ArialMT-31"/>
       <use x="55.615234" xlink:href="#ArialMT-3a"/>
       <use x="83.398438" xlink:href="#ArialMT-30"/>
       <use x="139.013672" xlink:href="#ArialMT-36"/>
       <use x="194.628906" xlink:href="#ArialMT-3a"/>
       <use x="222.412109" xlink:href="#ArialMT-34"/>
       <use x="278.027344" xlink:href="#ArialMT-30"/>
      </g>
     </g>
    </g>
    <g id="xtick_2">
     <g id="line2d_2">
      <path clip-path="url(#p6c8694892b)" d="M 306.881655 384.48 
L 306.881655 51.84 
" style="fill:none;stroke:#ffffff;stroke-linecap:round;stroke-width:0.8;"/>
     </g>
     <g id="text_2">
      <!-- 1:40:00 -->
      <g style="fill:#262626;" transform="translate(290.201186 398.637812)scale(0.1 -0.1)">
       <use xlink:href="#ArialMT-31"/>
       <use x="55.615234" xlink:href="#ArialMT-3a"/>
       <use x="83.398438" xlink:href="#ArialMT-34"/>
       <use x="139.013672" xlink:href="#ArialMT-30"/>
       <use x="194.628906" xlink:href="#ArialMT-3a"/>
       <use x="222.412109" xlink:href="#ArialMT-30"/>
       <use x="278.027344" xlink:href="#ArialMT-30"/>
      </g>
     </g>
    </g>
    <g id="xtick_3">
     <g id="line2d_3">
      <path clip-path="url(#p6c8694892b)" d="M 418.342152 384.48 
L 418.342152 51.84 
" style="fill:none;stroke:#ffffff;stroke-linecap:round;stroke-width:0.8;"/>
     </g>
     <g id="text_3">
      <!-- 2:13:20 -->
      <defs>
       <path d="M 50.34375 8.453125 
L 50.34375 0 
L 3.03125 0 
Q 2.9375 3.171875 4.046875 6.109375 
Q 5.859375 10.9375 9.828125 15.625 
Q 13.8125 20.3125 21.34375 26.46875 
Q 33.015625 36.03125 37.109375 41.625 
Q 41.21875 47.21875 41.21875 52.203125 
Q 41.21875 57.421875 37.46875 61 
Q 33.734375 64.59375 27.734375 64.59375 
Q 21.390625 64.59375 17.578125 60.78125 
Q 13.765625 56.984375 13.71875 50.25 
L 4.6875 51.171875 
Q 5.609375 61.28125 11.65625 66.578125 
Q 17.71875 71.875 27.9375 71.875 
Q 38.234375 71.875 44.234375 66.15625 
Q 50.25 60.453125 50.25 52 
Q 50.25 47.703125 48.484375 43.546875 
Q 46.734375 39.40625 42.65625 34.8125 
Q 38.578125 30.21875 29.109375 22.21875 
Q 21.1875 15.578125 18.9375 13.203125 
Q 16.703125 10.84375 15.234375 8.453125 
z
" id="ArialMT-32"/>
       <path d="M 4.203125 18.890625 
L 12.984375 20.0625 
Q 14.5 12.59375 18.140625 9.296875 
Q 21.78125 6 27 6 
Q 33.203125 6 37.46875 10.296875 
Q 41.75 14.59375 41.75 20.953125 
Q 41.75 27 37.796875 30.921875 
Q 33.84375 34.859375 27.734375 34.859375 
Q 25.25 34.859375 21.53125 33.890625 
L 22.515625 41.609375 
Q 23.390625 41.5 23.921875 41.5 
Q 29.546875 41.5 34.03125 44.421875 
Q 38.53125 47.359375 38.53125 53.46875 
Q 38.53125 58.296875 35.25 61.46875 
Q 31.984375 64.65625 26.8125 64.65625 
Q 21.6875 64.65625 18.265625 61.421875 
Q 14.84375 58.203125 13.875 51.765625 
L 5.078125 53.328125 
Q 6.6875 62.15625 12.390625 67.015625 
Q 18.109375 71.875 26.609375 71.875 
Q 32.46875 71.875 37.390625 69.359375 
Q 42.328125 66.84375 44.9375 62.5 
Q 47.5625 58.15625 47.5625 53.265625 
Q 47.5625 48.640625 45.0625 44.828125 
Q 42.578125 41.015625 37.703125 38.765625 
Q 44.046875 37.3125 47.5625 32.6875 
Q 51.078125 28.078125 51.078125 21.140625 
Q 51.078125 11.765625 44.234375 5.25 
Q 37.40625 -1.265625 26.953125 -1.265625 
Q 17.53125 -1.265625 11.296875 4.34375 
Q 5.078125 9.96875 4.203125 18.890625 
z
" id="ArialMT-33"/>
      </defs>
      <g style="fill:#262626;" transform="translate(401.661683 398.637812)scale(0.1 -0.1)">
       <use xlink:href="#ArialMT-32"/>
       <use x="55.615234" xlink:href="#ArialMT-3a"/>
       <use x="83.398438" xlink:href="#ArialMT-31"/>
       <use x="139.013672" xlink:href="#ArialMT-33"/>
       <use x="194.628906" xlink:href="#ArialMT-3a"/>
       <use x="222.412109" xlink:href="#ArialMT-32"/>
       <use x="278.027344" xlink:href="#ArialMT-30"/>
      </g>
     </g>
    </g>
    <g id="xtick_4">
     <g id="line2d_4">
      <path clip-path="url(#p6c8694892b)" d="M 529.802649 384.48 
L 529.802649 51.84 
" style="fill:none;stroke:#ffffff;stroke-linecap:round;stroke-width:0.8;"/>
     </g>
     <g id="text_4">
      <!-- 2:46:40 -->
      <g style="fill:#262626;" transform="translate(513.12218 398.637812)scale(0.1 -0.1)">
       <use xlink:href="#ArialMT-32"/>
       <use x="55.615234" xlink:href="#ArialMT-3a"/>
       <use x="83.398438" xlink:href="#ArialMT-34"/>
       <use x="139.013672" xlink:href="#ArialMT-36"/>
       <use x="194.628906" xlink:href="#ArialMT-3a"/>
       <use x="222.412109" xlink:href="#ArialMT-34"/>
       <use x="278.027344" xlink:href="#ArialMT-30"/>
      </g>
     </g>
    </g>
    <g id="xtick_5">
     <g id="line2d_5">
      <path clip-path="url(#p6c8694892b)" d="M 641.263146 384.48 
L 641.263146 51.84 
" style="fill:none;stroke:#ffffff;stroke-linecap:round;stroke-width:0.8;"/>
     </g>
     <g id="text_5">
      <!-- 3:20:00 -->
      <g style="fill:#262626;" transform="translate(624.582677 398.637812)scale(0.1 -0.1)">
       <use xlink:href="#ArialMT-33"/>
       <use x="55.615234" xlink:href="#ArialMT-3a"/>
       <use x="83.398438" xlink:href="#ArialMT-32"/>
       <use x="139.013672" xlink:href="#ArialMT-30"/>
       <use x="194.628906" xlink:href="#ArialMT-3a"/>
       <use x="222.412109" xlink:href="#ArialMT-30"/>
       <use x="278.027344" xlink:href="#ArialMT-30"/>
      </g>
     </g>
    </g>
    <g id="text_6">
     <!-- Total Time -->
     <defs>
      <path d="M 25.921875 0 
L 25.921875 63.140625 
L 2.34375 63.140625 
L 2.34375 71.578125 
L 59.078125 71.578125 
L 59.078125 63.140625 
L 35.40625 63.140625 
L 35.40625 0 
z
" id="ArialMT-54"/>
      <path d="M 3.328125 25.921875 
Q 3.328125 40.328125 11.328125 47.265625 
Q 18.015625 53.03125 27.640625 53.03125 
Q 38.328125 53.03125 45.109375 46.015625 
Q 51.90625 39.015625 51.90625 26.65625 
Q 51.90625 16.65625 48.90625 10.90625 
Q 45.90625 5.171875 40.15625 2 
Q 34.421875 -1.171875 27.640625 -1.171875 
Q 16.75 -1.171875 10.03125 5.8125 
Q 3.328125 12.796875 3.328125 25.921875 
z
M 12.359375 25.921875 
Q 12.359375 15.96875 16.703125 11.015625 
Q 21.046875 6.0625 27.640625 6.0625 
Q 34.1875 6.0625 38.53125 11.03125 
Q 42.875 16.015625 42.875 26.21875 
Q 42.875 35.84375 38.5 40.796875 
Q 34.125 45.75 27.640625 45.75 
Q 21.046875 45.75 16.703125 40.8125 
Q 12.359375 35.890625 12.359375 25.921875 
z
" id="ArialMT-6f"/>
      <path d="M 25.78125 7.859375 
L 27.046875 0.09375 
Q 23.34375 -0.6875 20.40625 -0.6875 
Q 15.625 -0.6875 12.984375 0.828125 
Q 10.359375 2.34375 9.28125 4.8125 
Q 8.203125 7.28125 8.203125 15.1875 
L 8.203125 45.015625 
L 1.765625 45.015625 
L 1.765625 51.859375 
L 8.203125 51.859375 
L 8.203125 64.703125 
L 16.9375 69.96875 
L 16.9375 51.859375 
L 25.78125 51.859375 
L 25.78125 45.015625 
L 16.9375 45.015625 
L 16.9375 14.703125 
Q 16.9375 10.9375 17.40625 9.859375 
Q 17.875 8.796875 18.921875 8.15625 
Q 19.96875 7.515625 21.921875 7.515625 
Q 23.390625 7.515625 25.78125 7.859375 
z
" id="ArialMT-74"/>
      <path d="M 40.4375 6.390625 
Q 35.546875 2.25 31.03125 0.53125 
Q 26.515625 -1.171875 21.34375 -1.171875 
Q 12.796875 -1.171875 8.203125 3 
Q 3.609375 7.171875 3.609375 13.671875 
Q 3.609375 17.484375 5.34375 20.625 
Q 7.078125 23.78125 9.890625 25.6875 
Q 12.703125 27.59375 16.21875 28.5625 
Q 18.796875 29.25 24.03125 29.890625 
Q 34.671875 31.15625 39.703125 32.90625 
Q 39.75 34.71875 39.75 35.203125 
Q 39.75 40.578125 37.25 42.78125 
Q 33.890625 45.75 27.25 45.75 
Q 21.046875 45.75 18.09375 43.578125 
Q 15.140625 41.40625 13.71875 35.890625 
L 5.125 37.0625 
Q 6.296875 42.578125 8.984375 45.96875 
Q 11.671875 49.359375 16.75 51.1875 
Q 21.828125 53.03125 28.515625 53.03125 
Q 35.15625 53.03125 39.296875 51.46875 
Q 43.453125 49.90625 45.40625 47.53125 
Q 47.359375 45.171875 48.140625 41.546875 
Q 48.578125 39.3125 48.578125 33.453125 
L 48.578125 21.734375 
Q 48.578125 9.46875 49.140625 6.21875 
Q 49.703125 2.984375 51.375 0 
L 42.1875 0 
Q 40.828125 2.734375 40.4375 6.390625 
z
M 39.703125 26.03125 
Q 34.90625 24.078125 25.34375 22.703125 
Q 19.921875 21.921875 17.671875 20.9375 
Q 15.4375 19.96875 14.203125 18.09375 
Q 12.984375 16.21875 12.984375 13.921875 
Q 12.984375 10.40625 15.640625 8.0625 
Q 18.3125 5.71875 23.4375 5.71875 
Q 28.515625 5.71875 32.46875 7.9375 
Q 36.421875 10.15625 38.28125 14.015625 
Q 39.703125 17 39.703125 22.796875 
z
" id="ArialMT-61"/>
      <path d="M 6.390625 0 
L 6.390625 71.578125 
L 15.1875 71.578125 
L 15.1875 0 
z
" id="ArialMT-6c"/>
      <path id="ArialMT-20"/>
      <path d="M 6.640625 61.46875 
L 6.640625 71.578125 
L 15.4375 71.578125 
L 15.4375 61.46875 
z
M 6.640625 0 
L 6.640625 51.859375 
L 15.4375 51.859375 
L 15.4375 0 
z
" id="ArialMT-69"/>
      <path d="M 6.59375 0 
L 6.59375 51.859375 
L 14.453125 51.859375 
L 14.453125 44.578125 
Q 16.890625 48.390625 20.9375 50.703125 
Q 25 53.03125 30.171875 53.03125 
Q 35.9375 53.03125 39.625 50.640625 
Q 43.3125 48.25 44.828125 43.953125 
Q 50.984375 53.03125 60.84375 53.03125 
Q 68.5625 53.03125 72.703125 48.75 
Q 76.859375 44.484375 76.859375 35.59375 
L 76.859375 0 
L 68.109375 0 
L 68.109375 32.671875 
Q 68.109375 37.9375 67.25 40.25 
Q 66.40625 42.578125 64.15625 43.984375 
Q 61.921875 45.40625 58.890625 45.40625 
Q 53.421875 45.40625 49.796875 41.765625 
Q 46.1875 38.140625 46.1875 30.125 
L 46.1875 0 
L 37.40625 0 
L 37.40625 33.6875 
Q 37.40625 39.546875 35.25 42.46875 
Q 33.109375 45.40625 28.21875 45.40625 
Q 24.515625 45.40625 21.359375 43.453125 
Q 18.21875 41.5 16.796875 37.734375 
Q 15.375 33.984375 15.375 26.90625 
L 15.375 0 
z
" id="ArialMT-6d"/>
      <path d="M 42.09375 16.703125 
L 51.171875 15.578125 
Q 49.03125 7.625 43.21875 3.21875 
Q 37.40625 -1.171875 28.375 -1.171875 
Q 17 -1.171875 10.328125 5.828125 
Q 3.65625 12.84375 3.65625 25.484375 
Q 3.65625 38.578125 10.390625 45.796875 
Q 17.140625 53.03125 27.875 53.03125 
Q 38.28125 53.03125 44.875 45.953125 
Q 51.46875 38.875 51.46875 26.03125 
Q 51.46875 25.25 51.421875 23.6875 
L 12.75 23.6875 
Q 13.234375 15.140625 17.578125 10.59375 
Q 21.921875 6.0625 28.421875 6.0625 
Q 33.25 6.0625 36.671875 8.59375 
Q 40.09375 11.140625 42.09375 16.703125 
z
M 13.234375 30.90625 
L 42.1875 30.90625 
Q 41.609375 37.453125 38.875 40.71875 
Q 34.671875 45.796875 27.984375 45.796875 
Q 21.921875 45.796875 17.796875 41.75 
Q 13.671875 37.703125 13.234375 30.90625 
z
" id="ArialMT-65"/>
     </defs>
     <g style="fill:#262626;" transform="translate(345.397656 411.783125)scale(0.1 -0.1)">
      <use xlink:href="#ArialMT-54"/>
      <use x="60.912109" xlink:href="#ArialMT-6f"/>
      <use x="116.527344" xlink:href="#ArialMT-74"/>
      <use x="144.310547" xlink:href="#ArialMT-61"/>
      <use x="199.925781" xlink:href="#ArialMT-6c"/>
      <use x="222.142578" xlink:href="#ArialMT-20"/>
      <use x="249.910156" xlink:href="#ArialMT-54"/>
      <use x="310.947266" xlink:href="#ArialMT-69"/>
      <use x="333.164062" xlink:href="#ArialMT-6d"/>
      <use x="416.464844" xlink:href="#ArialMT-65"/>
     </g>
    </g>
   </g>
   <g id="matplotlib.axis_2">
    <g id="ytick_1">
     <g id="line2d_6">
      <path clip-path="url(#p6c8694892b)" d="M 90 369.36 
L 648 369.36 
" style="fill:none;stroke:#ffffff;stroke-linecap:round;stroke-width:0.8;"/>
     </g>
     <g id="text_7">
      <!-- 0.0000 -->
      <defs>
       <path d="M 9.078125 0 
L 9.078125 10.015625 
L 19.09375 10.015625 
L 19.09375 0 
z
" id="ArialMT-2e"/>
      </defs>
      <g style="fill:#262626;" transform="translate(52.417187 372.938906)scale(0.1 -0.1)">
       <use xlink:href="#ArialMT-30"/>
       <use x="55.615234" xlink:href="#ArialMT-2e"/>
       <use x="83.398438" xlink:href="#ArialMT-30"/>
       <use x="139.013672" xlink:href="#ArialMT-30"/>
       <use x="194.628906" xlink:href="#ArialMT-30"/>
       <use x="250.244141" xlink:href="#ArialMT-30"/>
      </g>
     </g>
    </g>
    <g id="ytick_2">
     <g id="line2d_7">
      <path clip-path="url(#p6c8694892b)" d="M 90 310.957743 
L 648 310.957743 
" style="fill:none;stroke:#ffffff;stroke-linecap:round;stroke-width:0.8;"/>
     </g>
     <g id="text_8">
      <!-- 0.0001 -->
      <g style="fill:#262626;" transform="translate(52.417187 314.53665)scale(0.1 -0.1)">
       <use xlink:href="#ArialMT-30"/>
       <use x="55.615234" xlink:href="#ArialMT-2e"/>
       <use x="83.398438" xlink:href="#ArialMT-30"/>
       <use x="139.013672" xlink:href="#ArialMT-30"/>
       <use x="194.628906" xlink:href="#ArialMT-30"/>
       <use x="250.244141" xlink:href="#ArialMT-31"/>
      </g>
     </g>
    </g>
    <g id="ytick_3">
     <g id="line2d_8">
      <path clip-path="url(#p6c8694892b)" d="M 90 252.555487 
L 648 252.555487 
" style="fill:none;stroke:#ffffff;stroke-linecap:round;stroke-width:0.8;"/>
     </g>
     <g id="text_9">
      <!-- 0.0002 -->
      <g style="fill:#262626;" transform="translate(52.417187 256.134393)scale(0.1 -0.1)">
       <use xlink:href="#ArialMT-30"/>
       <use x="55.615234" xlink:href="#ArialMT-2e"/>
       <use x="83.398438" xlink:href="#ArialMT-30"/>
       <use x="139.013672" xlink:href="#ArialMT-30"/>
       <use x="194.628906" xlink:href="#ArialMT-30"/>
       <use x="250.244141" xlink:href="#ArialMT-32"/>
      </g>
     </g>
    </g>
    <g id="ytick_4">
     <g id="line2d_9">
      <path clip-path="url(#p6c8694892b)" d="M 90 194.15323 
L 648 194.15323 
" style="fill:none;stroke:#ffffff;stroke-linecap:round;stroke-width:0.8;"/>
     </g>
     <g id="text_10">
      <!-- 0.0003 -->
      <g style="fill:#262626;" transform="translate(52.417187 197.732136)scale(0.1 -0.1)">
       <use xlink:href="#ArialMT-30"/>
       <use x="55.615234" xlink:href="#ArialMT-2e"/>
       <use x="83.398438" xlink:href="#ArialMT-30"/>
       <use x="139.013672" xlink:href="#ArialMT-30"/>
       <use x="194.628906" xlink:href="#ArialMT-30"/>
       <use x="250.244141" xlink:href="#ArialMT-33"/>
      </g>
     </g>
    </g>
    <g id="ytick_5">
     <g id="line2d_10">
      <path clip-path="url(#p6c8694892b)" d="M 90 135.750973 
L 648 135.750973 
" style="fill:none;stroke:#ffffff;stroke-linecap:round;stroke-width:0.8;"/>
     </g>
     <g id="text_11">
      <!-- 0.0004 -->
      <g style="fill:#262626;" transform="translate(52.417187 139.329879)scale(0.1 -0.1)">
       <use xlink:href="#ArialMT-30"/>
       <use x="55.615234" xlink:href="#ArialMT-2e"/>
       <use x="83.398438" xlink:href="#ArialMT-30"/>
       <use x="139.013672" xlink:href="#ArialMT-30"/>
       <use x="194.628906" xlink:href="#ArialMT-30"/>
       <use x="250.244141" xlink:href="#ArialMT-34"/>
      </g>
     </g>
    </g>
    <g id="ytick_6">
     <g id="line2d_11">
      <path clip-path="url(#p6c8694892b)" d="M 90 77.348716 
L 648 77.348716 
" style="fill:none;stroke:#ffffff;stroke-linecap:round;stroke-width:0.8;"/>
     </g>
     <g id="text_12">
      <!-- 0.0005 -->
      <defs>
       <path d="M 4.15625 18.75 
L 13.375 19.53125 
Q 14.40625 12.796875 18.140625 9.390625 
Q 21.875 6 27.15625 6 
Q 33.5 6 37.890625 10.78125 
Q 42.28125 15.578125 42.28125 23.484375 
Q 42.28125 31 38.0625 35.34375 
Q 33.84375 39.703125 27 39.703125 
Q 22.75 39.703125 19.328125 37.765625 
Q 15.921875 35.84375 13.96875 32.765625 
L 5.71875 33.84375 
L 12.640625 70.609375 
L 48.25 70.609375 
L 48.25 62.203125 
L 19.671875 62.203125 
L 15.828125 42.96875 
Q 22.265625 47.46875 29.34375 47.46875 
Q 38.71875 47.46875 45.15625 40.96875 
Q 51.609375 34.46875 51.609375 24.265625 
Q 51.609375 14.546875 45.953125 7.46875 
Q 39.0625 -1.21875 27.15625 -1.21875 
Q 17.390625 -1.21875 11.203125 4.25 
Q 5.03125 9.71875 4.15625 18.75 
z
" id="ArialMT-35"/>
      </defs>
      <g style="fill:#262626;" transform="translate(52.417187 80.927623)scale(0.1 -0.1)">
       <use xlink:href="#ArialMT-30"/>
       <use x="55.615234" xlink:href="#ArialMT-2e"/>
       <use x="83.398438" xlink:href="#ArialMT-30"/>
       <use x="139.013672" xlink:href="#ArialMT-30"/>
       <use x="194.628906" xlink:href="#ArialMT-30"/>
       <use x="250.244141" xlink:href="#ArialMT-35"/>
      </g>
     </g>
    </g>
   </g>
   <g id="PolyCollection_1">
    <defs>
     <path d="M 145.555465 -62.678574 
L 145.555465 -62.64 
L 149.312008 -62.64 
L 153.06855 -62.64 
L 156.825093 -62.64 
L 160.581635 -62.64 
L 164.338178 -62.64 
L 168.09472 -62.64 
L 171.851263 -62.64 
L 175.607805 -62.64 
L 179.364348 -62.64 
L 183.12089 -62.64 
L 186.877433 -62.64 
L 190.633975 -62.64 
L 194.390518 -62.64 
L 198.14706 -62.64 
L 201.903603 -62.64 
L 205.660145 -62.64 
L 209.416688 -62.64 
L 213.17323 -62.64 
L 216.929773 -62.64 
L 220.686315 -62.64 
L 224.442858 -62.64 
L 228.1994 -62.64 
L 231.955943 -62.64 
L 235.712485 -62.64 
L 239.469028 -62.64 
L 243.22557 -62.64 
L 246.982113 -62.64 
L 250.738655 -62.64 
L 254.495198 -62.64 
L 258.25174 -62.64 
L 262.008283 -62.64 
L 265.764825 -62.64 
L 269.521368 -62.64 
L 273.27791 -62.64 
L 277.034453 -62.64 
L 280.790995 -62.64 
L 284.547538 -62.64 
L 288.30408 -62.64 
L 292.060623 -62.64 
L 295.817165 -62.64 
L 299.573708 -62.64 
L 303.33025 -62.64 
L 307.086793 -62.64 
L 310.843335 -62.64 
L 314.599878 -62.64 
L 318.35642 -62.64 
L 322.112963 -62.64 
L 325.869505 -62.64 
L 329.626048 -62.64 
L 333.382591 -62.64 
L 337.139133 -62.64 
L 340.895676 -62.64 
L 344.652218 -62.64 
L 348.408761 -62.64 
L 352.165303 -62.64 
L 355.921846 -62.64 
L 359.678388 -62.64 
L 363.434931 -62.64 
L 367.191473 -62.64 
L 370.948016 -62.64 
L 374.704558 -62.64 
L 378.461101 -62.64 
L 382.217643 -62.64 
L 385.974186 -62.64 
L 389.730728 -62.64 
L 393.487271 -62.64 
L 397.243813 -62.64 
L 401.000356 -62.64 
L 404.756898 -62.64 
L 408.513441 -62.64 
L 412.269983 -62.64 
L 416.026526 -62.64 
L 419.783068 -62.64 
L 423.539611 -62.64 
L 427.296153 -62.64 
L 431.052696 -62.64 
L 434.809238 -62.64 
L 438.565781 -62.64 
L 442.322323 -62.64 
L 446.078866 -62.64 
L 449.835408 -62.64 
L 453.591951 -62.64 
L 457.348493 -62.64 
L 461.105036 -62.64 
L 464.861578 -62.64 
L 468.618121 -62.64 
L 472.374663 -62.64 
L 476.131206 -62.64 
L 479.887748 -62.64 
L 483.644291 -62.64 
L 487.400833 -62.64 
L 491.157376 -62.64 
L 494.913918 -62.64 
L 498.670461 -62.64 
L 502.427003 -62.64 
L 506.183546 -62.64 
L 509.940088 -62.64 
L 513.696631 -62.64 
L 517.453173 -62.64 
L 521.209716 -62.64 
L 524.966258 -62.64 
L 528.722801 -62.64 
L 532.479343 -62.64 
L 536.235886 -62.64 
L 539.992428 -62.64 
L 543.748971 -62.64 
L 547.505513 -62.64 
L 551.262056 -62.64 
L 555.018598 -62.64 
L 558.775141 -62.64 
L 562.531684 -62.64 
L 566.288226 -62.64 
L 570.044769 -62.64 
L 573.801311 -62.64 
L 577.557854 -62.64 
L 581.314396 -62.64 
L 585.070939 -62.64 
L 588.827481 -62.64 
L 592.584024 -62.64 
L 596.340566 -62.64 
L 600.097109 -62.64 
L 603.853651 -62.64 
L 607.610194 -62.64 
L 611.366736 -62.64 
L 615.123279 -62.64 
L 618.879821 -62.64 
L 622.636364 -62.64 
L 622.636364 -62.670868 
L 622.636364 -62.670868 
L 618.879821 -62.679103 
L 615.123279 -62.703629 
L 611.366736 -62.748092 
L 607.610194 -62.817984 
L 603.853651 -62.918755 
L 600.097109 -63.053446 
L 596.340566 -63.220149 
L 592.584024 -63.409987 
L 588.827481 -63.606556 
L 585.070939 -63.787527 
L 581.314396 -63.92851 
L 577.557854 -64.008355 
L 573.801311 -64.014342 
L 570.044769 -63.945502 
L 566.288226 -63.812895 
L 562.531684 -63.636755 
L 558.775141 -63.441555 
L 555.018598 -63.250746 
L 551.262056 -63.082854 
L 547.505513 -62.949955 
L 543.748971 -62.85866 
L 539.992428 -62.812968 
L 536.235886 -62.817981 
L 532.479343 -62.883435 
L 528.722801 -63.02612 
L 524.966258 -63.270417 
L 521.209716 -63.646336 
L 517.453173 -64.184717 
L 513.696631 -64.909808 
L 509.940088 -65.830272 
L 506.183546 -66.930684 
L 502.427003 -68.16631 
L 498.670461 -69.464064 
L 494.913918 -70.731593 
L 491.157376 -71.874462 
L 487.400833 -72.818771 
L 483.644291 -73.533984 
L 479.887748 -74.049316 
L 476.131206 -74.457426 
L 472.374663 -74.901724 
L 468.618121 -75.547932 
L 464.861578 -76.545405 
L 461.105036 -77.987722 
L 457.348493 -79.883607 
L 453.591951 -82.147547 
L 449.835408 -84.614524 
L 446.078866 -87.076438 
L 442.322323 -89.331191 
L 438.565781 -91.231412 
L 434.809238 -92.719971 
L 431.052696 -93.843702 
L 427.296153 -94.743394 
L 423.539611 -95.624627 
L 419.783068 -96.71828 
L 416.026526 -98.24077 
L 412.269983 -100.362592 
L 408.513441 -103.190789 
L 404.756898 -106.767346 
L 401.000356 -111.081757 
L 397.243813 -116.092625 
L 393.487271 -121.750669 
L 389.730728 -128.015095 
L 385.974186 -134.85737 
L 382.217643 -142.250964 
L 378.461101 -150.150945 
L 374.704558 -158.471657 
L 370.948016 -167.072308 
L 367.191473 -175.758769 
L 363.434931 -184.305774 
L 359.678388 -192.498092 
L 355.921846 -200.183046 
L 352.165303 -207.320923 
L 348.408761 -214.016012 
L 344.652218 -220.511781 
L 340.895676 -227.141457 
L 337.139133 -234.239922 
L 333.382591 -242.039813 
L 329.626048 -250.585942 
L 325.869505 -259.700188 
L 322.112963 -269.012011 
L 318.35642 -278.044138 
L 314.599878 -286.320909 
L 310.843335 -293.459337 
L 307.086793 -299.213696 
L 303.33025 -303.467344 
L 299.573708 -306.188545 
L 295.817165 -307.379061 
L 292.060623 -307.041076 
L 288.30408 -305.173552 
L 284.547538 -301.792175 
L 280.790995 -296.956217 
L 277.034453 -290.784701 
L 273.27791 -283.451759 
L 269.521368 -275.161976 
L 265.764825 -266.115495 
L 262.008283 -256.47634 
L 258.25174 -246.355182 
L 254.495198 -235.811369 
L 250.738655 -224.871496 
L 246.982113 -213.556062 
L 243.22557 -201.90403 
L 239.469028 -189.987653 
L 235.712485 -177.915188 
L 231.955943 -165.824404 
L 228.1994 -153.872509 
L 224.442858 -142.22718 
L 220.686315 -131.060012 
L 216.929773 -120.54025 
L 213.17323 -110.825623 
L 209.416688 -102.049052 
L 205.660145 -94.303545 
L 201.903603 -87.630308 
L 198.14706 -82.014929 
L 194.390518 -77.3936 
L 190.633975 -73.667305 
L 186.877433 -70.719115 
L 183.12089 -68.429423 
L 179.364348 -66.685954 
L 175.607805 -65.38816 
L 171.851263 -64.44773 
L 168.09472 -63.787541 
L 164.338178 -63.340745 
L 160.581635 -63.050578 
L 156.825093 -62.870573 
L 153.06855 -62.764616 
L 149.312008 -62.706446 
L 145.555465 -62.678574 
z
" id="m42b49056aa" style="stroke:#ffffff;stroke-opacity:0.25;"/>
    </defs>
    <g clip-path="url(#p6c8694892b)">
     <use style="fill:#1f77b4;fill-opacity:0.25;stroke:#ffffff;stroke-opacity:0.25;" x="0" xlink:href="#m42b49056aa" y="432"/>
    </g>
   </g>
   <g id="PolyCollection_2">
    <defs>
     <path d="M 115.363636 -62.691858 
L 115.363636 -62.64 
L 118.360799 -62.64 
L 121.357961 -62.64 
L 124.355124 -62.64 
L 127.352286 -62.64 
L 130.349449 -62.64 
L 133.346611 -62.64 
L 136.343774 -62.64 
L 139.340936 -62.64 
L 142.338099 -62.64 
L 145.335261 -62.64 
L 148.332424 -62.64 
L 151.329586 -62.64 
L 154.326749 -62.64 
L 157.323911 -62.64 
L 160.321074 -62.64 
L 163.318236 -62.64 
L 166.315399 -62.64 
L 169.312561 -62.64 
L 172.309724 -62.64 
L 175.306886 -62.64 
L 178.304049 -62.64 
L 181.301211 -62.64 
L 184.298374 -62.64 
L 187.295536 -62.64 
L 190.292699 -62.64 
L 193.289861 -62.64 
L 196.287024 -62.64 
L 199.284186 -62.64 
L 202.281349 -62.64 
L 205.278511 -62.64 
L 208.275674 -62.64 
L 211.272836 -62.64 
L 214.269999 -62.64 
L 217.267161 -62.64 
L 220.264324 -62.64 
L 223.261486 -62.64 
L 226.258649 -62.64 
L 229.255811 -62.64 
L 232.252974 -62.64 
L 235.250136 -62.64 
L 238.247299 -62.64 
L 241.244461 -62.64 
L 244.241624 -62.64 
L 247.238786 -62.64 
L 250.235949 -62.64 
L 253.233111 -62.64 
L 256.230274 -62.64 
L 259.227436 -62.64 
L 262.224599 -62.64 
L 265.221761 -62.64 
L 268.218924 -62.64 
L 271.216086 -62.64 
L 274.213249 -62.64 
L 277.210411 -62.64 
L 280.207574 -62.64 
L 283.204736 -62.64 
L 286.201899 -62.64 
L 289.199061 -62.64 
L 292.196224 -62.64 
L 295.193386 -62.64 
L 298.190549 -62.64 
L 301.187711 -62.64 
L 304.184873 -62.64 
L 307.182036 -62.64 
L 310.179198 -62.64 
L 313.176361 -62.64 
L 316.173523 -62.64 
L 319.170686 -62.64 
L 322.167848 -62.64 
L 325.165011 -62.64 
L 328.162173 -62.64 
L 331.159336 -62.64 
L 334.156498 -62.64 
L 337.153661 -62.64 
L 340.150823 -62.64 
L 343.147986 -62.64 
L 346.145148 -62.64 
L 349.142311 -62.64 
L 352.139473 -62.64 
L 355.136636 -62.64 
L 358.133798 -62.64 
L 361.130961 -62.64 
L 364.128123 -62.64 
L 367.125286 -62.64 
L 370.122448 -62.64 
L 373.119611 -62.64 
L 376.116773 -62.64 
L 379.113936 -62.64 
L 382.111098 -62.64 
L 385.108261 -62.64 
L 388.105423 -62.64 
L 391.102586 -62.64 
L 394.099748 -62.64 
L 397.096911 -62.64 
L 400.094073 -62.64 
L 403.091236 -62.64 
L 406.088398 -62.64 
L 409.085561 -62.64 
L 412.082723 -62.64 
L 415.079886 -62.64 
L 418.077048 -62.64 
L 421.074211 -62.64 
L 424.071373 -62.64 
L 427.068536 -62.64 
L 430.065698 -62.64 
L 433.062861 -62.64 
L 436.060023 -62.64 
L 439.057186 -62.64 
L 442.054348 -62.64 
L 445.051511 -62.64 
L 448.048673 -62.64 
L 451.045836 -62.64 
L 454.042998 -62.64 
L 457.040161 -62.64 
L 460.037323 -62.64 
L 463.034486 -62.64 
L 466.031648 -62.64 
L 469.028811 -62.64 
L 472.025973 -62.64 
L 475.023136 -62.64 
L 478.020298 -62.64 
L 481.017461 -62.64 
L 484.014623 -62.64 
L 487.011786 -62.64 
L 490.008948 -62.64 
L 493.006111 -62.64 
L 496.003273 -62.64 
L 496.003273 -62.682214 
L 496.003273 -62.682214 
L 493.006111 -62.691401 
L 490.008948 -62.720671 
L 487.011786 -62.775853 
L 484.014623 -62.867026 
L 481.017461 -63.008079 
L 478.020298 -63.215836 
L 475.023136 -63.508449 
L 472.025973 -63.90293 
L 469.028811 -64.411891 
L 466.031648 -65.039914 
L 463.034486 -65.780256 
L 460.037323 -66.612809 
L 457.040161 -67.504248 
L 454.042998 -68.411018 
L 451.045836 -69.285212 
L 448.048673 -70.082679 
L 445.051511 -70.771899 
L 442.054348 -71.341698 
L 439.057186 -71.805881 
L 436.060023 -72.203475 
L 433.062861 -72.594308 
L 430.065698 -73.050849 
L 427.068536 -73.648089 
L 424.071373 -74.453422 
L 421.074211 -75.518034 
L 418.077048 -76.870369 
L 415.079886 -78.511563 
L 412.082723 -80.412501 
L 409.085561 -82.512768 
L 406.088398 -84.722631 
L 403.091236 -86.929774 
L 400.094073 -89.012109 
L 397.096911 -90.856409 
L 394.099748 -92.380255 
L 391.102586 -93.552691 
L 388.105423 -94.408219 
L 385.108261 -95.049724 
L 382.111098 -95.638452 
L 379.113936 -96.37244 
L 376.116773 -97.457614 
L 373.119611 -99.077307 
L 370.122448 -101.365917 
L 367.125286 -104.391071 
L 364.128123 -108.146659 
L 361.130961 -112.557014 
L 358.133798 -117.490805 
L 355.136636 -122.781883 
L 352.139473 -128.253494 
L 349.142311 -133.741893 
L 346.145148 -139.115617 
L 343.147986 -144.28765 
L 340.150823 -149.219423 
L 337.153661 -153.917594 
L 334.156498 -158.426249 
L 331.159336 -162.817724 
L 328.162173 -167.184406 
L 325.165011 -171.631881 
L 322.167848 -176.27166 
L 319.170686 -181.210689 
L 316.173523 -186.535836 
L 313.176361 -192.294421 
L 310.179198 -198.475547 
L 307.182036 -204.999587 
L 304.184873 -211.722949 
L 301.187711 -218.461641 
L 298.190549 -225.030926 
L 295.193386 -231.292056 
L 292.196224 -237.1932 
L 289.199061 -242.792218 
L 286.201899 -248.253931 
L 283.204736 -253.822062 
L 280.207574 -259.773139 
L 277.210411 -266.363671 
L 274.213249 -273.781591 
L 271.216086 -282.109253 
L 268.218924 -291.300362 
L 265.221761 -301.16978 
L 262.224599 -311.394427 
L 259.227436 -321.525212 
L 256.230274 -331.012064 
L 253.233111 -339.244474 
L 250.235949 -345.607398 
L 247.238786 -349.547532 
L 244.241624 -350.64 
L 241.244461 -348.643054 
L 238.247299 -343.529653 
L 235.250136 -335.489585 
L 232.252974 -324.902143 
L 229.255811 -312.285101 
L 226.258649 -298.229397 
L 223.261486 -283.330213 
L 220.264324 -268.124599 
L 217.267161 -253.044163 
L 214.269999 -238.388858 
L 211.272836 -224.324578 
L 208.275674 -210.90313 
L 205.278511 -198.098789 
L 202.281349 -185.852175 
L 199.284186 -174.110821 
L 196.287024 -162.857321 
L 193.289861 -152.11991 
L 190.292699 -141.965597 
L 187.295536 -132.480715 
L 184.298374 -123.746503 
L 181.301211 -115.817492 
L 178.304049 -108.708298 
L 175.306886 -102.391106 
L 172.309724 -96.802878 
L 169.312561 -91.859024 
L 166.315399 -87.469359 
L 163.318236 -83.552422 
L 160.321074 -80.045313 
L 157.323911 -76.907628 
L 154.326749 -74.119572 
L 151.329586 -71.675631 
L 148.332424 -69.575977 
L 145.335261 -67.81806 
L 142.338099 -66.390425 
L 139.340936 -65.269905 
L 136.343774 -64.422289 
L 133.346611 -63.805628 
L 130.349449 -63.374842 
L 127.352286 -63.086301 
L 124.355124 -62.90138 
L 121.357961 -62.788558 
L 118.360799 -62.724123 
L 115.363636 -62.691858 
z
" id="maddee89024" style="stroke:#ffffff;stroke-opacity:0.25;"/>
    </defs>
    <g clip-path="url(#p6c8694892b)">
     <use style="fill:#ff7f0e;fill-opacity:0.25;stroke:#ffffff;stroke-opacity:0.25;" x="0" xlink:href="#maddee89024" y="432"/>
    </g>
   </g>
   <g id="line2d_12">
    <path clip-path="url(#p6c8694892b)" d="M 145.555465 369.321426 
L 156.825093 369.129427 
L 164.338178 368.659255 
L 168.09472 368.212459 
L 171.851263 367.55227 
L 175.607805 366.61184 
L 179.364348 365.314046 
L 183.12089 363.570577 
L 186.877433 361.280885 
L 190.633975 358.332695 
L 194.390518 354.6064 
L 198.14706 349.985071 
L 201.903603 344.369692 
L 205.660145 337.696455 
L 209.416688 329.950948 
L 213.17323 321.174377 
L 216.929773 311.45975 
L 220.686315 300.939988 
L 224.442858 289.77282 
L 231.955943 266.175596 
L 243.22557 230.09597 
L 250.738655 207.128504 
L 254.495198 196.188631 
L 258.25174 185.644818 
L 262.008283 175.52366 
L 265.764825 165.884505 
L 269.521368 156.838024 
L 273.27791 148.548241 
L 277.034453 141.215299 
L 280.790995 135.043783 
L 284.547538 130.207825 
L 288.30408 126.826448 
L 292.060623 124.958924 
L 295.817165 124.620939 
L 299.573708 125.811455 
L 303.33025 128.532656 
L 307.086793 132.786304 
L 310.843335 138.540663 
L 314.599878 145.679091 
L 318.35642 153.955862 
L 325.869505 172.299812 
L 329.626048 181.414058 
L 333.382591 189.960187 
L 337.139133 197.760078 
L 340.895676 204.858543 
L 352.165303 224.679077 
L 355.921846 231.816954 
L 359.678388 239.501908 
L 363.434931 247.694226 
L 378.461101 281.849055 
L 382.217643 289.749036 
L 385.974186 297.14263 
L 389.730728 303.984905 
L 393.487271 310.249331 
L 397.243813 315.907375 
L 401.000356 320.918243 
L 404.756898 325.232654 
L 408.513441 328.809211 
L 412.269983 331.637408 
L 416.026526 333.75923 
L 419.783068 335.28172 
L 423.539611 336.375373 
L 431.052696 338.156298 
L 434.809238 339.280029 
L 438.565781 340.768588 
L 442.322323 342.668809 
L 446.078866 344.923562 
L 453.591951 349.852453 
L 457.348493 352.116393 
L 461.105036 354.012278 
L 464.861578 355.454595 
L 468.618121 356.452068 
L 472.374663 357.098276 
L 483.644291 358.466016 
L 487.400833 359.181229 
L 491.157376 360.125538 
L 494.913918 361.268407 
L 506.183546 365.069316 
L 509.940088 366.169728 
L 513.696631 367.090192 
L 517.453173 367.815283 
L 521.209716 368.353664 
L 524.966258 368.729583 
L 532.479343 369.116565 
L 539.992428 369.187032 
L 547.505513 369.050045 
L 558.775141 368.558445 
L 570.044769 368.054498 
L 577.557854 367.991645 
L 585.070939 368.212473 
L 603.853651 369.081245 
L 615.123279 369.296371 
L 622.636364 369.329132 
L 622.636364 369.329132 
" style="fill:none;stroke:#1f77b4;stroke-linecap:round;stroke-width:1.5;"/>
   </g>
   <g id="line2d_13">
    <path clip-path="url(#p6c8694892b)" d="M 115.363636 369.308142 
L 121.357961 369.211442 
L 127.352286 368.913699 
L 130.349449 368.625158 
L 133.346611 368.194372 
L 136.343774 367.577711 
L 139.340936 366.730095 
L 142.338099 365.609575 
L 145.335261 364.18194 
L 148.332424 362.424023 
L 151.329586 360.324369 
L 154.326749 357.880428 
L 157.323911 355.092372 
L 160.321074 351.954687 
L 163.318236 348.447578 
L 166.315399 344.530641 
L 169.312561 340.140976 
L 172.309724 335.197122 
L 175.306886 329.608894 
L 178.304049 323.291702 
L 181.301211 316.182508 
L 184.298374 308.253497 
L 187.295536 299.519285 
L 190.292699 290.034403 
L 193.289861 279.88009 
L 196.287024 269.142679 
L 199.284186 257.889179 
L 202.281349 246.147825 
L 205.278511 233.901211 
L 208.275674 221.09687 
L 211.272836 207.675422 
L 214.269999 193.611142 
L 220.264324 163.875401 
L 226.258649 133.770603 
L 229.255811 119.714899 
L 232.252974 107.097857 
L 235.250136 96.510415 
L 238.247299 88.470347 
L 241.244461 83.356946 
L 244.241624 81.36 
L 247.238786 82.452468 
L 250.235949 86.392602 
L 253.233111 92.755526 
L 256.230274 100.987936 
L 259.227436 110.474788 
L 268.218924 140.699638 
L 271.216086 149.890747 
L 274.213249 158.218409 
L 277.210411 165.636329 
L 280.207574 172.226861 
L 283.204736 178.177938 
L 292.196224 194.8068 
L 295.193386 200.707944 
L 298.190549 206.969074 
L 304.184873 220.277051 
L 310.179198 233.524453 
L 313.176361 239.705579 
L 316.173523 245.464164 
L 319.170686 250.789311 
L 322.167848 255.72834 
L 328.162173 264.815594 
L 337.153661 278.082406 
L 340.150823 282.780577 
L 343.147986 287.71235 
L 349.142311 298.258107 
L 358.133798 314.509195 
L 361.130961 319.442986 
L 364.128123 323.853341 
L 367.125286 327.608929 
L 370.122448 330.634083 
L 373.119611 332.922693 
L 376.116773 334.542386 
L 379.113936 335.62756 
L 382.111098 336.361548 
L 388.105423 337.591781 
L 391.102586 338.447309 
L 394.099748 339.619745 
L 397.096911 341.143591 
L 400.094073 342.987891 
L 406.088398 347.277369 
L 412.082723 351.587499 
L 415.079886 353.488437 
L 418.077048 355.129631 
L 421.074211 356.481966 
L 424.071373 357.546578 
L 427.068536 358.351911 
L 430.065698 358.949151 
L 436.060023 359.796525 
L 442.054348 360.658302 
L 445.051511 361.228101 
L 451.045836 362.714788 
L 463.034486 366.219744 
L 469.028811 367.588109 
L 472.025973 368.09707 
L 478.020298 368.784164 
L 484.014623 369.132974 
L 493.006111 369.308599 
L 496.003273 369.317786 
L 496.003273 369.317786 
" style="fill:none;stroke:#ff7f0e;stroke-linecap:round;stroke-width:1.5;"/>
   </g>
   <g id="line2d_14">
    <path clip-path="url(#p6c8694892b)" d="M 205.786984 369.36 
L 205.786984 66.96 
" style="fill:none;stroke:#000000;stroke-linecap:round;stroke-width:1.5;"/>
   </g>
   <g id="patch_3">
    <path d="M 90 384.48 
L 90 51.84 
" style="fill:none;stroke:#ffffff;stroke-linecap:square;stroke-linejoin:miter;stroke-width:0.8;"/>
   </g>
   <g id="patch_4">
    <path d="M 648 384.48 
L 648 51.84 
" style="fill:none;stroke:#ffffff;stroke-linecap:square;stroke-linejoin:miter;stroke-width:0.8;"/>
   </g>
   <g id="patch_5">
    <path d="M 90 384.48 
L 648 384.48 
" style="fill:none;stroke:#ffffff;stroke-linecap:square;stroke-linejoin:miter;stroke-width:0.8;"/>
   </g>
   <g id="patch_6">
    <path d="M 90 51.84 
L 648 51.84 
" style="fill:none;stroke:#ffffff;stroke-linecap:square;stroke-linejoin:miter;stroke-width:0.8;"/>
   </g>
   <g id="text_13">
    <!-- Total Time PDFs -->
    <defs>
     <path d="M 7.71875 0 
L 7.71875 71.578125 
L 34.71875 71.578125 
Q 41.84375 71.578125 45.609375 70.90625 
Q 50.875 70.015625 54.4375 67.546875 
Q 58.015625 65.09375 60.1875 60.640625 
Q 62.359375 56.203125 62.359375 50.875 
Q 62.359375 41.75 56.546875 35.421875 
Q 50.734375 29.109375 35.546875 29.109375 
L 17.1875 29.109375 
L 17.1875 0 
z
M 17.1875 37.546875 
L 35.6875 37.546875 
Q 44.875 37.546875 48.734375 40.96875 
Q 52.59375 44.390625 52.59375 50.59375 
Q 52.59375 55.078125 50.3125 58.265625 
Q 48.046875 61.46875 44.34375 62.5 
Q 41.9375 63.140625 35.5 63.140625 
L 17.1875 63.140625 
z
" id="ArialMT-50"/>
     <path d="M 7.71875 0 
L 7.71875 71.578125 
L 32.375 71.578125 
Q 40.71875 71.578125 45.125 70.5625 
Q 51.265625 69.140625 55.609375 65.4375 
Q 61.28125 60.640625 64.078125 53.1875 
Q 66.890625 45.75 66.890625 36.1875 
Q 66.890625 28.03125 64.984375 21.734375 
Q 63.09375 15.4375 60.109375 11.296875 
Q 57.125 7.171875 53.578125 4.796875 
Q 50.046875 2.4375 45.046875 1.21875 
Q 40.046875 0 33.546875 0 
z
M 17.1875 8.453125 
L 32.46875 8.453125 
Q 39.546875 8.453125 43.578125 9.765625 
Q 47.609375 11.078125 50 13.484375 
Q 53.375 16.84375 55.25 22.53125 
Q 57.125 28.21875 57.125 36.328125 
Q 57.125 47.5625 53.4375 53.59375 
Q 49.75 59.625 44.484375 61.671875 
Q 40.671875 63.140625 32.234375 63.140625 
L 17.1875 63.140625 
z
" id="ArialMT-44"/>
     <path d="M 8.203125 0 
L 8.203125 71.578125 
L 56.5 71.578125 
L 56.5 63.140625 
L 17.671875 63.140625 
L 17.671875 40.96875 
L 51.265625 40.96875 
L 51.265625 32.515625 
L 17.671875 32.515625 
L 17.671875 0 
z
" id="ArialMT-46"/>
     <path d="M 3.078125 15.484375 
L 11.765625 16.84375 
Q 12.5 11.625 15.84375 8.84375 
Q 19.1875 6.0625 25.203125 6.0625 
Q 31.25 6.0625 34.171875 8.515625 
Q 37.109375 10.984375 37.109375 14.3125 
Q 37.109375 17.28125 34.515625 19 
Q 32.71875 20.171875 25.53125 21.96875 
Q 15.875 24.421875 12.140625 26.203125 
Q 8.40625 27.984375 6.46875 31.125 
Q 4.546875 34.28125 4.546875 38.09375 
Q 4.546875 41.546875 6.125 44.5 
Q 7.71875 47.46875 10.453125 49.421875 
Q 12.5 50.921875 16.03125 51.96875 
Q 19.578125 53.03125 23.640625 53.03125 
Q 29.734375 53.03125 34.34375 51.265625 
Q 38.96875 49.515625 41.15625 46.5 
Q 43.359375 43.5 44.1875 38.484375 
L 35.59375 37.3125 
Q 35.015625 41.3125 32.203125 43.546875 
Q 29.390625 45.796875 24.265625 45.796875 
Q 18.21875 45.796875 15.625 43.796875 
Q 13.03125 41.796875 13.03125 39.109375 
Q 13.03125 37.40625 14.109375 36.03125 
Q 15.1875 34.625 17.484375 33.6875 
Q 18.796875 33.203125 25.25 31.453125 
Q 34.578125 28.953125 38.25 27.359375 
Q 41.9375 25.78125 44.03125 22.75 
Q 46.140625 19.734375 46.140625 15.234375 
Q 46.140625 10.84375 43.578125 6.953125 
Q 41.015625 3.078125 36.171875 0.953125 
Q 31.34375 -1.171875 25.25 -1.171875 
Q 15.140625 -1.171875 9.84375 3.03125 
Q 4.546875 7.234375 3.078125 15.484375 
z
" id="ArialMT-73"/>
    </defs>
    <g style="fill:#262626;" transform="translate(324.010312 45.84)scale(0.12 -0.12)">
     <use xlink:href="#ArialMT-54"/>
     <use x="60.912109" xlink:href="#ArialMT-6f"/>
     <use x="116.527344" xlink:href="#ArialMT-74"/>
     <use x="144.310547" xlink:href="#ArialMT-61"/>
     <use x="199.925781" xlink:href="#ArialMT-6c"/>
     <use x="222.142578" xlink:href="#ArialMT-20"/>
     <use x="249.910156" xlink:href="#ArialMT-54"/>
     <use x="310.947266" xlink:href="#ArialMT-69"/>
     <use x="333.164062" xlink:href="#ArialMT-6d"/>
     <use x="416.464844" xlink:href="#ArialMT-65"/>
     <use x="472.080078" xlink:href="#ArialMT-20"/>
     <use x="499.863281" xlink:href="#ArialMT-50"/>
     <use x="566.5625" xlink:href="#ArialMT-44"/>
     <use x="638.779297" xlink:href="#ArialMT-46"/>
     <use x="699.863281" xlink:href="#ArialMT-73"/>
    </g>
   </g>
   <g id="legend_1">
    <g id="patch_7">
     <path d="M 574.55 88.130625 
L 641 88.130625 
Q 643 88.130625 643 86.130625 
L 643 58.84 
Q 643 56.84 641 56.84 
L 574.55 56.84 
Q 572.55 56.84 572.55 58.84 
L 572.55 86.130625 
Q 572.55 88.130625 574.55 88.130625 
z
" style="fill:#eaeaf2;opacity:0.8;stroke:#cccccc;stroke-linejoin:miter;"/>
    </g>
    <g id="patch_8">
     <path d="M 576.55 67.997812 
L 596.55 67.997812 
L 596.55 60.997812 
L 576.55 60.997812 
z
" style="fill:#1f77b4;opacity:0.25;stroke:#ffffff;stroke-linejoin:miter;"/>
    </g>
    <g id="text_14">
     <!-- Women -->
     <defs>
      <path d="M 20.21875 0 
L 1.21875 71.578125 
L 10.9375 71.578125 
L 21.828125 24.65625 
Q 23.578125 17.28125 24.859375 10.015625 
Q 27.59375 21.484375 28.078125 23.25 
L 41.703125 71.578125 
L 53.125 71.578125 
L 63.375 35.359375 
Q 67.234375 21.875 68.953125 10.015625 
Q 70.3125 16.796875 72.515625 25.59375 
L 83.734375 71.578125 
L 93.265625 71.578125 
L 73.640625 0 
L 64.5 0 
L 49.421875 54.546875 
Q 47.515625 61.375 47.171875 62.9375 
Q 46.046875 58.015625 45.0625 54.546875 
L 29.890625 0 
z
" id="ArialMT-57"/>
      <path d="M 6.59375 0 
L 6.59375 51.859375 
L 14.5 51.859375 
L 14.5 44.484375 
Q 20.21875 53.03125 31 53.03125 
Q 35.6875 53.03125 39.625 51.34375 
Q 43.5625 49.65625 45.515625 46.921875 
Q 47.46875 44.1875 48.25 40.4375 
Q 48.734375 37.984375 48.734375 31.890625 
L 48.734375 0 
L 39.9375 0 
L 39.9375 31.546875 
Q 39.9375 36.921875 38.90625 39.578125 
Q 37.890625 42.234375 35.28125 43.8125 
Q 32.671875 45.40625 29.15625 45.40625 
Q 23.53125 45.40625 19.453125 41.84375 
Q 15.375 38.28125 15.375 28.328125 
L 15.375 0 
z
" id="ArialMT-6e"/>
     </defs>
     <g style="fill:#262626;" transform="translate(604.55 67.997812)scale(0.1 -0.1)">
      <use xlink:href="#ArialMT-57"/>
      <use x="94.369141" xlink:href="#ArialMT-6f"/>
      <use x="149.984375" xlink:href="#ArialMT-6d"/>
      <use x="233.285156" xlink:href="#ArialMT-65"/>
      <use x="288.900391" xlink:href="#ArialMT-6e"/>
     </g>
    </g>
    <g id="patch_9">
     <path d="M 576.55 82.143125 
L 596.55 82.143125 
L 596.55 75.143125 
L 576.55 75.143125 
z
" style="fill:#ff7f0e;opacity:0.25;stroke:#ffffff;stroke-linejoin:miter;"/>
    </g>
    <g id="text_15">
     <!-- Men -->
     <defs>
      <path d="M 7.421875 0 
L 7.421875 71.578125 
L 21.6875 71.578125 
L 38.625 20.90625 
Q 40.96875 13.8125 42.046875 10.296875 
Q 43.265625 14.203125 45.84375 21.78125 
L 62.984375 71.578125 
L 75.734375 71.578125 
L 75.734375 0 
L 66.609375 0 
L 66.609375 59.90625 
L 45.796875 0 
L 37.25 0 
L 16.546875 60.9375 
L 16.546875 0 
z
" id="ArialMT-4d"/>
     </defs>
     <g style="fill:#262626;" transform="translate(604.55 82.143125)scale(0.1 -0.1)">
      <use xlink:href="#ArialMT-4d"/>
      <use x="83.300781" xlink:href="#ArialMT-65"/>
      <use x="138.916016" xlink:href="#ArialMT-6e"/>
     </g>
    </g>
   </g>
  </g>
 </g>
 <defs>
  <clipPath id="p6c8694892b">
   <rect height="332.64" width="558" x="90" y="51.84"/>
  </clipPath>
 </defs>
</svg>
